<svg id="Layer_1" enable-background="new 0 0 512.094 512.094" height="512" viewBox="0 0 512.094 512.094" width="512" xmlns="http://www.w3.org/2000/svg"><g><path d="m438.653 190.49c0 163.622-163.932 314.104-182.5 314.104s-182.5-150.482-182.5-314.104c0-101.011 81.708-182.896 182.5-182.896s182.5 81.886 182.5 182.896z" fill="#ff6167"/><path d="m256.153 7.594c-5.051 0-10.052.215-15 .619 93.774 7.647 167.5 86.329 167.5 182.277 0 141.232-122.133 272.669-167.5 305.997 7.192 5.283 12.459 8.107 15 8.107 18.568 0 182.5-150.482 182.5-314.104 0-101.01-81.708-182.896-182.5-182.896z" fill="#fe454a"/><circle cx="256.153" cy="190.491" fill="#f8f7f7" r="145"/><path d="m256.153 45.491c-5.064 0-10.068.263-15 .772 72.932 7.53 130 69.338 130 144.228s-57.068 136.698-130 144.228c4.932.509 9.936.772 15 .772 79.953 0 145-65.047 145-145s-65.046-145-145-145z" fill="#efefef"/><path d="m322.153 213.325h-132v-8c0-36.451 29.549-66 66-66 36.451 0 66 29.549 66 66z" fill="#cfdbe4"/><path d="m256.153 139.325c-5.162 0-10.179.612-15 1.733 29.221 6.794 51 32.979 51 64.267v8h30v-8c0-36.451-29.549-66-66-66z" fill="#afbbc6"/><path d="m315.878 241.325h-119.45c-3.786 0-7.186-2.317-8.57-5.841l-8.705-22.159h154l-8.705 22.159c-1.385 3.524-4.784 5.841-8.57 5.841z" fill="#7b727b"/><path d="m303.153 213.325-8.705 22.159c-1.384 3.524-4.784 5.841-8.57 5.841h30c3.786 0 7.185-2.317 8.57-5.841l8.705-22.159z" fill="#686169"/><g><path d="m284.834 475.383c-16.863 15.321-26.009 20.593-28.685 21.592-3.051-1.122-13.88-7.503-33.983-26.514-69.782-69.999-137.786-162.952-141.016-279.97-1.223-142.408 166.049-226.908 279.336-140.83 3.32 2.475 8.019 1.791 10.496-1.531 2.476-3.321 1.791-8.02-1.531-10.496-123.018-93.432-304.613-1.785-303.296 152.859 3.323 123.384 74.859 220.859 148.549 293.534 13.818 12.803 32.224 28.067 41.45 28.067 7.021 0 20.063-8.616 38.768-25.609 7.117-6.932-2.515-17.524-10.088-11.102z"/><path d="m396.374 62.01c-2.794-3.06-7.538-3.275-10.596-.482-3.059 2.793-3.275 7.537-.482 10.596 116.759 125.051-19.823 323.62-76.061 379.108-2.833 3.022-2.679 7.769.343 10.601 3.016 2.828 7.764 2.683 10.601-.343 91.116-94 186.472-281.326 76.195-399.48z"/><path d="m144.801 271.068c-2.433-3.353-7.123-4.099-10.475-1.665-3.353 2.433-4.098 7.123-1.665 10.475 28.68 39.519 74.846 63.112 123.492 63.112 202.286-8.362 202.277-296.645-.001-305-106.729-1.188-182.619 111.578-141.286 209.902 1.564 3.836 5.943 5.677 9.776 4.113 3.835-1.563 5.677-5.941 4.113-9.776-37.246-88.644 31.171-190.32 127.399-189.237 75.817-.001 137.499 61.681 137.499 137.499-.407 132.621-170.845 187.723-248.852 80.577z"/><path d="m256.153 116.302c-4.142 0-7.5 3.358-7.5 7.5v8.403c-37.018 3.769-66 35.123-66 73.12v.5h-14.5c-9.931.344-9.923 14.659 0 15h5.889l6.836 17.402c2.529 6.438 8.633 10.598 15.55 10.598h119.449c6.917 0 13.021-4.16 15.55-10.598l6.836-17.402h5.889c9.931-.344 9.923-14.659 0-15h-14.5v-.5c0-37.996-28.982-69.351-66-73.12v-8.403c.001-4.142-3.357-7.5-7.499-7.5zm61.314 116.44c-.259.658-.882 1.083-1.589 1.083h-119.449c-.707 0-1.331-.425-1.589-1.083l-4.682-11.917h131.991zm-2.814-27.417v.5h-117v-.5c3.223-77.627 113.806-77.567 117 0z"/></g></g></svg>