<svg id="Layer_1" enable-background="new 0 0 512 512" height="512" viewBox="0 0 512 512" width="512" xmlns="http://www.w3.org/2000/svg"><g><path d="m438.506 190.396c0 163.622-163.932 314.104-182.5 314.104s-182.5-150.482-182.5-314.104c0-101.011 81.708-182.896 182.5-182.896s182.5 81.885 182.5 182.896z" fill="#ff6167"/><path d="m256.006 7.5c-5.051 0-10.052.215-15 .619 93.774 7.647 167.5 86.329 167.5 182.277 0 141.232-122.133 272.669-167.5 305.997 7.192 5.283 12.459 8.107 15 8.107 18.568 0 182.5-150.482 182.5-314.104 0-101.011-81.708-182.896-182.5-182.896z" fill="#fe454a"/><circle cx="256.006" cy="190.396" fill="#f8f7f7" r="145"/><path d="m256.006 45.396c-5.064 0-10.068.263-15 .772 72.932 7.53 130 69.338 130 144.228s-57.068 136.698-130 144.228c4.932.509 9.936.772 15 .772 79.953 0 145-65.047 145-145s-65.046-145-145-145z" fill="#efefef"/><path d="m321.846 242.941h-131.679c-8.842 0-16.01-7.168-16.01-16.01v-11.273c0-1.773 1.437-3.21 3.21-3.21h157.28c1.773 0 3.21 1.437 3.21 3.21v11.273c-.001 8.843-7.169 16.01-16.011 16.01z" fill="#e0925b"/><path d="m334.646 212.448h-30c1.773 0 3.21 1.437 3.21 3.21v11.273c0 8.842-7.168 16.01-16.01 16.01h30c8.842 0 16.01-7.168 16.01-16.01v-11.273c0-1.772-1.437-3.21-3.21-3.21z" fill="#d48145"/><path d="m334.65 184.448h-157.287c-1.814 0-3.266-1.497-3.209-3.31.444-14.159 7.001-68.91 81.852-68.91s81.408 54.752 81.852 68.91c.058 1.814-1.394 3.31-3.208 3.31z" fill="#e0925b"/><path d="m256.006 112.228c-5.344 0-10.329.288-15 .811 60.745 6.809 66.44 54.951 66.852 68.099.057 1.813-1.395 3.31-3.209 3.31h30c1.814 0 3.266-1.497 3.209-3.31-.443-14.158-7-68.91-81.852-68.91z" fill="#d48145"/><path d="m333.485 212.448h-154.958c-7.732 0-14-6.268-14-14 0-7.732 6.268-14 14-14h154.958c7.732 0 14 6.268 14 14 0 7.732-6.268 14-14 14z" fill="#e07f5d"/><path d="m333.485 184.448h-30c7.732 0 14 6.268 14 14s-6.268 14-14 14h30c7.732 0 14-6.268 14-14s-6.268-14-14-14z" fill="#d06d4a"/><g><path d="m305.807 454.604c-25.86 27.065-44.604 40.5-49.786 42.283-3.026-1.104-13.858-7.472-34.002-26.521-85.705-82.947-193.398-247.92-112.284-376.299 5.152-8.415-6.727-16.386-12.534-8.237-86.651 137.13 25.039 310.157 117.356 398.102 13.818 12.804 32.223 28.068 41.449 28.068 15.268 0 56.047-42.22 60.646-47.034 6.612-7.416-3.742-17.301-10.845-10.362z"/><path d="m256.006 0c-51.704 0-100.049 20.446-136.129 57.572-2.887 2.97-2.819 7.718.151 10.605 2.97 2.886 7.719 2.819 10.605-.152 33.232-34.193 77.757-53.025 125.373-53.025 96.495 0 175 78.683 175 175.396 0 101.313-64.053 192.92-102.233 238.508-2.659 3.176-2.241 7.905.935 10.565 3.158 2.648 7.895 2.253 10.565-.935 39.488-47.148 105.733-142.081 105.733-248.139 0-104.984-85.233-190.395-190-190.395z"/><path d="m256.006 342.896c84.089 0 152.5-68.411 152.5-152.5-8.377-202.312-296.654-202.253-305 .001 0 84.088 68.412 152.499 152.5 152.499zm0-290c75.817 0 137.5 61.683 137.5 137.5-7.553 182.412-267.475 182.359-275-.001 0-75.816 61.683-137.499 137.5-137.499z"/><path d="m166.657 216.358v10.574c0 12.963 10.546 23.51 23.51 23.51h131.68c12.963 0 23.51-10.547 23.51-23.51v-10.574c12.777-8.306 12.762-27.538-.015-35.828-.293-7.961-2.401-27.445-15.237-44.658-2.476-3.319-7.176-4.003-10.496-1.529-3.32 2.477-4.005 7.176-1.529 10.496 8.554 11.47 11.193 24.336 11.984 32.109h-148.122c1.77-17.83 12.665-57.22 74.064-57.22 14.576 0 27.282 2.209 37.767 6.564 3.827 1.592 8.215-.224 9.804-4.048 1.59-3.825-.223-8.215-4.048-9.804-12.318-5.118-26.961-7.713-43.522-7.713-54.433-1.204-87.733 31.682-89.335 75.802-12.784 8.296-12.786 27.528-.015 35.829zm163.699 10.574c0 4.692-3.817 8.51-8.51 8.51h-131.68c-4.692 0-8.51-3.817-8.51-8.51v-6.983h148.699v6.983zm3.129-34.984c8.605.306 8.599 12.697 0 13h-154.958c-8.605-.306-8.599-12.697 0-13z"/></g></g></svg>