<?xml version="1.0" encoding="UTF-8" standalone="no"?>
<!-- Created with Inkscape (http://www.inkscape.org/) -->

<svg
   xmlns:dc="http://purl.org/dc/elements/1.1/"
   xmlns:cc="http://creativecommons.org/ns#"
   xmlns:rdf="http://www.w3.org/1999/02/22-rdf-syntax-ns#"
   xmlns:svg="http://www.w3.org/2000/svg"
   xmlns="http://www.w3.org/2000/svg"
   xmlns:sodipodi="http://sodipodi.sourceforge.net/DTD/sodipodi-0.dtd"
   xmlns:inkscape="http://www.inkscape.org/namespaces/inkscape"
   width="100"
   height="100"
   viewBox="0 0 26.458334 26.458334"
   version="1.1"
   id="svg8"
   inkscape:version="0.92.4 (5da689c313, 2019-01-14)"
   sodipodi:docname="abocado.svg">
  <defs
     id="defs2" />
  <sodipodi:namedview
     id="base"
     pagecolor="#ffffff"
     bordercolor="#666666"
     borderopacity="1.0"
     inkscape:pageopacity="0.0"
     inkscape:pageshadow="2"
     inkscape:zoom="8"
     inkscape:cx="42.219064"
     inkscape:cy="52.273266"
     inkscape:document-units="mm"
     inkscape:current-layer="layer1"
     showgrid="true"
     units="px"
     inkscape:window-width="1920"
     inkscape:window-height="1057"
     inkscape:window-x="1272"
     inkscape:window-y="-8"
     inkscape:window-maximized="1"
     showguides="false">
    <inkscape:grid
       type="xygrid"
       id="grid4518"
       snapvisiblegridlinesonly="false"
       enabled="false" />
  </sodipodi:namedview>
  <metadata
     id="metadata5">
    <rdf:RDF>
      <cc:Work
         rdf:about="">
        <dc:format>image/svg+xml</dc:format>
        <dc:type
           rdf:resource="http://purl.org/dc/dcmitype/StillImage" />
        <dc:title></dc:title>
      </cc:Work>
    </rdf:RDF>
  </metadata>
  <g
     inkscape:label="Layer 1"
     inkscape:groupmode="layer"
     id="layer1"
     transform="translate(0,-270.54162)">
    <path
       style="opacity:1;fill:#009100;fill-opacity:1;fill-rule:nonzero;stroke:#0088aa;stroke-width:0;stroke-linecap:round;stroke-linejoin:round;stroke-miterlimit:4;stroke-dasharray:none;stroke-dashoffset:0;stroke-opacity:1;paint-order:normal"
       d="m 22.846021,285.59671 c 0,8.09145 -4.112123,11.19745 -9.313768,11.19745 -5.2016457,0 -9.5230617,-3.106 -9.5230657,-11.19745 -1.7e-6,-8.09145 4.2167675,-14.65087 9.4184167,-14.65087 5.20165,0 9.418417,6.27892 9.418417,14.65087 z"
       id="path4529"
       inkscape:connector-curvature="0"
       sodipodi:nodetypes="sssss" />
    <path
       sodipodi:nodetypes="sssss"
       inkscape:connector-curvature="0"
       id="path4532"
       d="m 22.556223,285.54357 c 0,7.84251 -3.985595,10.85293 -9.02719,10.85293 -5.0415952,0 -9.2300447,-3.01042 -9.2300486,-10.85293 -1.7e-6,-7.84246 4.087021,-14.20007 9.1286196,-14.20007 5.041599,0 9.128619,6.08573 9.128619,14.20007 z"
       style="opacity:1;fill:#9ade00;fill-opacity:1;fill-rule:nonzero;stroke:#0088aa;stroke-width:0;stroke-linecap:round;stroke-linejoin:round;stroke-miterlimit:4;stroke-dasharray:none;stroke-dashoffset:0;stroke-opacity:1;paint-order:normal" />
    <path
       style="opacity:1;fill:#ccff42;fill-opacity:1;fill-rule:nonzero;stroke:#0088aa;stroke-width:0;stroke-linecap:round;stroke-linejoin:round;stroke-miterlimit:4;stroke-dasharray:none;stroke-dashoffset:0;stroke-opacity:1;paint-order:normal"
       d="m 21.976628,285.43732 c 0,7.34456 -3.732541,10.16385 -8.454035,10.16385 -4.7214939,0 -8.6440102,-2.81929 -8.6440137,-10.16385 -1.6e-6,-7.34453 3.8275276,-13.29849 8.5490247,-13.29849 4.721498,0 8.549024,5.69935 8.549024,13.29849 z"
       id="path4534"
       inkscape:connector-curvature="0"
       sodipodi:nodetypes="sssss" />
    <g
       id="g4571"
       transform="matrix(1.0952974,0,0,1.0952974,-2.0362168,-27.196979)">
      <circle
         transform="scale(-1,1)"
         r="4.299479"
         cy="287.47495"
         cx="-14.346127"
         id="path4536"
         style="opacity:1;fill:#b88100;fill-opacity:1;fill-rule:nonzero;stroke:#0088aa;stroke-width:0;stroke-linecap:round;stroke-linejoin:round;stroke-miterlimit:4;stroke-dasharray:none;stroke-dashoffset:0;stroke-opacity:1;paint-order:normal" />
      <path
         sodipodi:nodetypes="ccccc"
         inkscape:connector-curvature="0"
         id="circle4540"
         d="m 14.348102,283.4891 c 2.16493,0.11682 3.904174,1.82726 4.057117,3.98994 -0.03865,0.16429 -0.267026,0.16487 -0.301791,0 -0.149738,-1.9985 -1.754697,-3.57806 -3.755326,-3.6959 -0.181984,-0.0518 -0.16922,-0.24708 0,-0.29404 z"
         style="opacity:1;fill:#ffffff;fill-opacity:0.49275363;fill-rule:nonzero;stroke:#0088aa;stroke-width:0;stroke-linecap:round;stroke-linejoin:round;stroke-miterlimit:4;stroke-dasharray:none;stroke-dashoffset:0;stroke-opacity:1;paint-order:normal" />
      <path
         inkscape:connector-curvature="0"
         id="circle4542"
         d="m 11.205518,284.52212 a 4.2994788,4.2994788 0 0 0 -1.151351,2.92282 4.2994788,4.2994788 0 0 0 4.299479,4.29948 4.2994788,4.2994788 0 0 0 2.685108,-0.94671 4.2994788,4.2994788 0 0 1 -3.148129,1.37666 4.2994788,4.2994788 0 0 1 -4.299479,-4.29948 4.2994788,4.2994788 0 0 1 1.614372,-3.35277 z"
         style="opacity:1;fill:#009100;fill-opacity:0.29468599;fill-rule:nonzero;stroke:#0088aa;stroke-width:0;stroke-linecap:round;stroke-linejoin:round;stroke-miterlimit:4;stroke-dasharray:none;stroke-dashoffset:0;stroke-opacity:1;paint-order:normal" />
      <path
         style="opacity:1;fill:#804d00;fill-opacity:0.29468599;fill-rule:nonzero;stroke:#0088aa;stroke-width:0;stroke-linecap:round;stroke-linejoin:round;stroke-miterlimit:4;stroke-dasharray:none;stroke-dashoffset:0;stroke-opacity:1;paint-order:normal"
         d="m 11.67324,284.10117 a 4.2994788,4.2994788 0 0 0 -1.151351,2.92282 4.2994788,4.2994788 0 0 0 4.299479,4.29948 4.2994788,4.2994788 0 0 0 2.685108,-0.94671 4.2994788,4.2994788 0 0 1 -3.148129,1.37666 4.2994788,4.2994788 0 0 1 -4.299479,-4.29948 4.2994788,4.2994788 0 0 1 1.614372,-3.35277 z"
         id="path4549"
         inkscape:connector-curvature="0" />
    </g>
    <ellipse
       style="opacity:1;fill:#2d2d2d;fill-opacity:1;fill-rule:nonzero;stroke:#0088aa;stroke-width:0;stroke-linecap:round;stroke-linejoin:round;stroke-miterlimit:4;stroke-dasharray:none;stroke-dashoffset:0;stroke-opacity:1;paint-order:normal"
       id="path4573"
       cx="16.297228"
       cy="278.40857"
       rx="1.6378331"
       ry="1.5832387" />
    <ellipse
       ry="0.69030064"
       rx="0.71410412"
       cy="278.11877"
       cx="16.297228"
       id="ellipse4579"
       style="opacity:1;fill:#ffffff;fill-opacity:1;fill-rule:nonzero;stroke:#0088aa;stroke-width:0;stroke-linecap:round;stroke-linejoin:round;stroke-miterlimit:4;stroke-dasharray:none;stroke-dashoffset:0;stroke-opacity:1;paint-order:normal" />
    <ellipse
       style="opacity:1;fill:#ffffff;fill-opacity:1;fill-rule:nonzero;stroke:#0088aa;stroke-width:0;stroke-linecap:round;stroke-linejoin:round;stroke-miterlimit:4;stroke-dasharray:none;stroke-dashoffset:0;stroke-opacity:1;paint-order:normal"
       id="ellipse4581"
       cx="15.536509"
       cy="279.12402"
       rx="0.35185757"
       ry="0.34012902" />
    <ellipse
       ry="1.5832387"
       rx="1.6378331"
       cy="278.46292"
       cx="10.754851"
       id="ellipse4583"
       style="opacity:1;fill:#2d2d2d;fill-opacity:1;fill-rule:nonzero;stroke:#0088aa;stroke-width:0;stroke-linecap:round;stroke-linejoin:round;stroke-miterlimit:4;stroke-dasharray:none;stroke-dashoffset:0;stroke-opacity:1;paint-order:normal" />
    <ellipse
       style="opacity:1;fill:#ffffff;fill-opacity:1;fill-rule:nonzero;stroke:#0088aa;stroke-width:0;stroke-linecap:round;stroke-linejoin:round;stroke-miterlimit:4;stroke-dasharray:none;stroke-dashoffset:0;stroke-opacity:1;paint-order:normal"
       id="ellipse4585"
       cx="10.754851"
       cy="278.17313"
       rx="0.71410412"
       ry="0.69030064" />
    <ellipse
       ry="0.34012902"
       rx="0.35185757"
       cy="279.17838"
       cx="9.994133"
       id="ellipse4587"
       style="opacity:1;fill:#ffffff;fill-opacity:1;fill-rule:nonzero;stroke:#0088aa;stroke-width:0;stroke-linecap:round;stroke-linejoin:round;stroke-miterlimit:4;stroke-dasharray:none;stroke-dashoffset:0;stroke-opacity:1;paint-order:normal" />
    <path
       style="opacity:1;fill:#2d2d2d;fill-opacity:1;fill-rule:nonzero;stroke:#0088aa;stroke-width:0;stroke-linecap:round;stroke-linejoin:round;stroke-miterlimit:4;stroke-dasharray:none;stroke-dashoffset:0;stroke-opacity:1;paint-order:normal"
       d="m 13.494733,281.48875 a 1.2704855,1.1978863 0 0 1 -1.250257,-0.99218 h 2.501647 a 1.2704855,1.1978863 0 0 1 -1.25139,0.99218 z"
       id="path4594"
       inkscape:connector-curvature="0" />
    <path
       style="opacity:1;fill:#ff4141;fill-opacity:1;fill-rule:nonzero;stroke:#0088aa;stroke-width:0;stroke-linecap:round;stroke-linejoin:round;stroke-miterlimit:4;stroke-dasharray:none;stroke-dashoffset:0;stroke-opacity:1;paint-order:normal"
       d="m 13.494334,280.99763 a 0.29241874,0.31159375 89.733101 0 0 -0.30315,0.23149 0.29241874,0.31159375 89.733101 0 0 0.305293,0.22866 0.29241874,0.31159375 89.733101 0 0 0.302938,-0.23149 0.29241874,0.31159375 89.733101 0 0 -0.305081,-0.22866 z"
       id="path4562"
       inkscape:connector-curvature="0" />
  </g>
</svg>
