<?xml version="1.0" encoding="iso-8859-1"?>
<!-- Generator: Adobe Illustrator 19.0.0, SVG Export Plug-In . SVG Version: 6.00 Build 0)  -->
<svg version="1.1" id="Capa_1" xmlns="http://www.w3.org/2000/svg" xmlns:xlink="http://www.w3.org/1999/xlink" x="0px" y="0px"
	 viewBox="0 0 512.412 512.412" style="enable-background:new 0 0 512.412 512.412;" xml:space="preserve">
<path style="fill:#E6E6E6;" d="M486.493,478.253H25.919c-9.556,0-17.379-7.687-17.379-17.081v-17.08h495.333v17.08
	C503.873,470.565,496.049,478.253,486.493,478.253z"/>
<g>
	<rect x="119.564" y="444.094" style="fill:#F2F2F2;" width="34.16" height="34.161"/>
	<rect x="170.802" y="444.094" style="fill:#F2F2F2;" width="17.08" height="34.161"/>
	<rect x="204.968" y="444.094" style="fill:#F2F2F2;" width="17.08" height="34.161"/>
</g>
<path d="M486.493,486.792H25.919C11.623,486.792,0,475.297,0,461.172v-17.08c0-4.715,3.817-8.541,8.54-8.541h495.333
	c4.722,0,8.54,3.826,8.54,8.541v17.08C512.413,475.297,500.789,486.792,486.493,486.792z M17.081,452.631v8.541
	c0,4.705,3.971,8.54,8.838,8.54h460.574c4.869,0,8.838-3.835,8.838-8.54v-8.541H17.081z"/>
<g>
	<path style="fill:#E55934;" d="M486.792,187.884H290.367v-17.08c0-9.436,7.643-17.08,17.08-17.08h162.265
		c9.437,0,17.08,7.644,17.08,17.08V187.884z"/>
	<polygon style="fill:#E55934;" points="452.631,119.563 324.528,119.563 307.448,153.724 469.712,153.724 	"/>
</g>
<polygon style="fill:#EA7A5D;" points="324.528,136.644 452.631,136.644 461.172,153.724 469.712,153.724 452.631,119.563 
	324.528,119.563 307.448,153.724 315.988,153.724 "/>
<path style="fill:#F5BB00;" d="M469.712,187.884H307.448l14.953,224.318c1.196,17.943,16.098,31.889,34.084,31.889h64.188
	c17.987,0,32.888-13.946,34.084-31.889L469.712,187.884z"/>
<circle style="fill:#E55934;" cx="388.583" cy="286.098" r="38.432"/>
<path d="M388.58,333.068c-25.894,0-46.971-21.069-46.971-46.971c0-25.903,21.077-46.971,46.971-46.971
	c25.893,0,46.971,21.069,46.971,46.971C435.551,311.999,414.474,333.068,388.58,333.068z M388.58,256.206
	c-16.484,0-29.891,13.408-29.891,29.891s13.407,29.891,29.891,29.891c16.483,0,29.891-13.408,29.891-29.891
	S405.063,256.206,388.58,256.206z"/>
<path d="M418.471,375.769H358.69c-4.723,0-8.542-3.826-8.542-8.54s3.817-8.54,8.542-8.54h59.782c4.722,0,8.54,3.826,8.54,8.54
	S423.193,375.769,418.471,375.769z"/>
<path d="M475.323,145.849l-15.048-30.105c-1.452-2.896-4.406-4.723-7.643-4.723V51.241c0-4.706,3.826-8.54,8.541-8.54h25.621
	c4.723,0,8.54-3.826,8.54-8.54s-3.817-8.54-8.54-8.54h-25.621c-14.126,0-25.621,11.495-25.621,25.621v59.782H324.528
	c-3.237,0-6.192,1.827-7.644,4.722l-15.047,30.105c-11.428,2.57-20.01,12.759-20.01,24.954v17.08c0,4.714,3.817,8.54,8.541,8.54
	h9.087l14.423,216.35c1.504,22.349,20.216,39.857,42.607,39.857h64.188c22.393,0,41.104-17.508,42.607-39.857l14.425-216.35h9.087
	c4.723,0,8.541-3.826,8.541-8.54v-17.08C495.333,158.609,486.75,148.42,475.323,145.849z M329.805,128.102h117.548l8.541,17.08
	H321.266L329.805,128.102z M446.234,411.63c-0.897,13.417-12.128,23.921-25.561,23.921h-64.188
	c-13.434,0-24.672-10.504-25.561-23.913l-14.346-215.213h143.995L446.234,411.63z M478.252,179.344h-8.541H307.448h-8.541v-8.54
	c0-4.706,3.826-8.54,8.541-8.54h162.265c4.714,0,8.54,3.834,8.54,8.54V179.344L478.252,179.344z"/>
<g>
	<path style="fill:#E55934;" d="M213.505,444.092H59.782c-18.866,0-34.161-15.297-34.161-34.161v-25.621h222.046v25.621
		C247.666,428.795,232.37,444.092,213.505,444.092z"/>
	<path style="fill:#E55934;" d="M247.666,239.126H25.621v-25.621c0-28.302,22.94-51.241,51.241-51.241h119.563
		c28.303,0,51.241,22.939,51.241,51.241V239.126z"/>
</g>
<path style="fill:#EA7A5D;" d="M196.425,162.264H76.862c-28.302,0-51.241,22.939-51.241,51.241v17.08
	c0-28.302,22.94-51.241,51.241-51.241h119.563c28.303,0,51.241,22.939,51.241,51.241v-17.08
	C247.666,185.203,224.727,162.264,196.425,162.264z"/>
<path style="fill:#AC4327;" d="M204.965,350.148H68.322c-14.152,0-25.621-11.47-25.621-25.621v-25.621
	c0-14.15,11.469-25.621,25.621-25.621h136.644c14.151,0,25.621,11.471,25.621,25.621v25.621
	C230.586,338.679,219.117,350.148,204.965,350.148z"/>
<path style="fill:#9BC53D;" d="M213.505,384.309H59.782c-9.436,0-17.08-7.644-17.08-17.081l0,0c0-9.436,7.644-17.08,17.08-17.08
	h153.724c9.437,0,17.08,7.644,17.08,17.08l0,0C230.586,376.665,222.942,384.309,213.505,384.309z"/>
<path d="M76.862,204.965h-8.54c-4.722,0-8.541-3.826-8.541-8.54c0-4.714,3.817-8.54,8.541-8.54h8.54c4.722,0,8.541,3.826,8.541,8.54
	C85.403,201.139,81.584,204.965,76.862,204.965z"/>
<path d="M119.563,213.505h-8.541c-4.723,0-8.54-3.826-8.54-8.54c0-4.714,3.817-8.54,8.54-8.54h8.541c4.722,0,8.54,3.826,8.54,8.54
	C128.103,209.679,124.286,213.505,119.563,213.505z"/>
<path d="M162.265,204.965h-8.54c-4.722,0-8.541-3.826-8.541-8.54c0-4.714,3.817-8.54,8.541-8.54h8.54
	c4.722,0,8.541,3.826,8.541,8.54C170.806,201.139,166.987,204.965,162.265,204.965z"/>
<path d="M204.965,247.665h-8.541c-4.723,0-8.54-3.826-8.54-8.54c0-4.715,3.817-8.54,8.54-8.54h8.541c4.723,0,8.54,3.826,8.54,8.54
	C213.505,243.84,209.689,247.665,204.965,247.665z"/>
<path style="fill:#F5BB00;" d="M179.345,93.942H93.942V51.241c0-9.436,7.644-17.08,17.08-17.08h85.402v42.702
	C196.425,86.298,188.781,93.942,179.345,93.942z"/>
<path style="fill:#F7C933;" d="M111.023,34.161c-9.436,0-17.08,7.644-17.08,17.08v17.08c0-9.436,7.644-17.08,17.08-17.08h85.402
	v-17.08H111.023z"/>
<rect x="128.103" y="34.158" style="fill:#E55934;" width="34.161" height="59.779"/>
<rect x="128.103" y="34.158" style="fill:#EA7A5D;" width="34.161" height="17.08"/>
<path style="fill:#F5BB00;" d="M213.505,239.126H60.695c-8.506,0-16.398,5.816-17.764,14.211c-1.733,10.7,6.474,19.95,16.85,19.95
	h17.08v25.62c0,9.437,7.644,17.081,17.08,17.081l0,0c9.437,0,17.08-7.644,17.08-17.081v-25.621h34.161v8.541
	c0,9.436,7.644,17.08,17.08,17.08l0,0c9.437,0,17.08-7.644,17.08-17.08v-8.541h33.248c8.506,0,16.397-5.816,17.764-14.211
	C232.089,248.375,223.882,239.126,213.505,239.126z"/>
<path d="M256.207,239.126v-25.621c0-32.965-26.825-59.782-59.782-59.782h-93.942v-51.241h25.621h34.161h17.08
	c14.125,0,25.621-11.495,25.621-25.621v-42.7c0-4.714-3.817-8.54-8.541-8.54h-34.16h-34.161h-17.08
	c-14.125,0-25.621,11.495-25.621,25.621v34.16v8.54v59.782h-8.541c-32.956,0-59.782,26.816-59.782,59.782v25.621
	c0,4.714,3.817,8.54,8.54,8.54h10.018c-0.503,1.383-0.888,2.818-1.135,4.296c-1.221,7.498,0.88,15.099,5.756,20.83
	c0.939,1.101,2.023,2.033,3.108,2.947c-5.662,6.105-9.206,14.209-9.206,23.167v25.621c0,8.968,3.543,17.081,9.224,23.178
	c-5.595,4.706-9.224,11.666-9.224,19.522c0,3.006,0.614,5.859,1.571,8.54H25.621c-4.723,0-8.54,3.826-8.54,8.541v25.621
	c0,23.546,19.156,42.702,42.701,42.702h153.724c23.546,0,42.702-19.155,42.702-42.702V384.31c0-4.713-3.817-8.541-8.541-8.541
	h-10.111c0.956-2.682,1.571-5.533,1.571-8.54c0-7.857-3.63-14.817-9.224-19.522c5.679-6.098,9.224-14.211,9.224-23.178v-25.621
	c0-9.001-3.57-17.14-9.274-23.246c4.654-3.817,7.95-9.137,8.932-15.209c0.709-4.373,0.17-8.737-1.264-12.784h10.145
	C252.389,247.665,256.207,243.84,256.207,239.126z M187.885,76.861c0,4.706-3.826,8.54-8.541,8.54h-8.54V42.701h17.08v34.16
	C187.884,76.861,187.885,76.861,187.885,76.861z M153.724,42.701v42.702h-17.08V42.701H153.724z M102.483,51.241
	c0-4.706,3.826-8.54,8.54-8.54h8.541v42.702h-17.081C102.483,85.402,102.483,51.241,102.483,51.241z M102.483,281.827v17.08
	c0,4.706-3.826,8.541-8.541,8.541c-4.714,0-8.54-3.835-8.54-8.541v-17.08H102.483z M93.942,324.528
	c14.126,0,25.621-11.495,25.621-25.621v-17.08h17.08c0,14.125,11.495,25.621,25.621,25.621c14.127,0,25.621-11.495,25.621-25.621
	h17.08c9.419,0,17.08,7.661,17.08,17.08v25.621c0,9.42-7.661,17.081-17.08,17.081H68.322c-9.419,0-17.08-7.661-17.08-17.081v-25.621
	c0-9.42,7.661-17.08,17.08-17.08v17.08C68.322,313.032,79.817,324.528,93.942,324.528z M170.804,281.827
	c0,4.706-3.826,8.541-8.541,8.541c-4.714,0-8.54-3.835-8.54-8.541H170.804z M239.126,409.931c0,14.125-11.495,25.621-25.621,25.621
	H59.782c-14.125,0-25.621-11.495-25.621-25.621v-17.082h25.621h153.724h25.621v17.082L239.126,409.931L239.126,409.931z
	 M59.782,375.769c-4.713,0-8.54-3.835-8.54-8.54s3.826-8.54,8.54-8.54h8.54h136.644h8.54c4.714,0,8.541,3.835,8.541,8.54
	s-3.826,8.54-8.541,8.54H59.782z M220.022,250.681c1.648,1.938,2.323,4.432,1.904,7.019c-0.65,3.954-4.741,7.046-9.334,7.046h-7.626
	h-25.621h-34.161h-34.16H76.861h-8.539h-8.542c-2.511,0-4.885-1.093-6.516-3.015c-1.648-1.938-2.323-4.432-1.904-7.019
	c0.649-3.954,4.739-7.046,9.334-7.046h152.81C216.017,247.665,218.391,248.759,220.022,250.681z M239.126,230.585h-25.621H60.695
	H34.161v-17.08c0-23.546,19.156-42.702,42.701-42.702h119.563c23.546,0,42.702,19.156,42.702,42.702v17.08H239.126z"/>
<g>
</g>
<g>
</g>
<g>
</g>
<g>
</g>
<g>
</g>
<g>
</g>
<g>
</g>
<g>
</g>
<g>
</g>
<g>
</g>
<g>
</g>
<g>
</g>
<g>
</g>
<g>
</g>
<g>
</g>
</svg>
