<svg id="Capa_1" enable-background="new 0 0 512 512" height="512" viewBox="0 0 512 512" width="512" xmlns="http://www.w3.org/2000/svg"><g><g><circle cx="256" cy="256" fill="#6bcb44" r="256"/><path d="m49.152 256c0-133.093 101.571-242.45 231.424-254.82-8.089-.771-16.284-1.18-24.576-1.18-141.385 0-256 114.615-256 256s114.615 256 256 256c8.291 0 16.487-.409 24.576-1.18-129.853-12.37-231.424-121.726-231.424-254.82z" fill="#4dc321"/><path d="m265.278 31.439c-112.447 13.064-199.735 108.609-199.735 224.561s87.288 211.497 199.735 224.561c119.831-4.867 215.489-103.535 215.489-224.561s-95.658-219.694-215.489-224.561z" fill="#dbedff"/><path d="m66.775 256c0-118.154 91.169-215.009 206.996-224.069-5.864-.459-11.789-.698-17.771-.698-124.135.001-224.766 100.632-224.766 224.767s100.631 224.767 224.766 224.767c5.982 0 11.907-.239 17.771-.698-115.828-9.06-206.996-105.915-206.996-224.069z" fill="#b5dcff"/></g><path d="m497.101 67.072c-45.707-4.716-198.891-9.282-223.08 137.081-.853 5.163 5.484 8.337 9.062 4.518 14.722-15.71 43.25-45.364 84.604-52.416 2.116-.361 3.079 2.528 1.174 3.517-32.728 16.991-81.169 69.458-107.681 201.005-.739 3.667-5.977 3.654-6.716-.013-32.381-160.656-97.898-195.668-126.932-203.25-3.64-.95-6.007 3.727-3.118 6.136 12.492 10.414 32.971 31.516 48.987 67.63 20.518 46.266 46.697 159.791 55.113 197.558 1.622 7.277 8.077 12.446 15.533 12.446.639 0 28.074 0 27.555 0 7.455 0 13.911-5.17 15.533-12.446 7.407-33.239 24.935-127.166 43.891-180.269 2.308-6.464 8.118-11.023 14.949-11.699 22.804-2.257 63.738-8.888 82.317-40.429 25.81-43.817 28.072-94.303 70.661-121.606 3.362-2.155 2.123-7.352-1.852-7.763z" fill="#6bcb44"/><g fill="#4dc321"><path d="m283.083 208.672c4.173-4.453 9.457-10.027 15.827-15.888 23.181-103.836 115.375-125.019 176.813-127.165-60.158-2.091-180.497 10.223-201.703 138.535-.853 5.163 5.484 8.336 9.063 4.518z"/><path d="m251.178 428.839c-8.416-37.766-34.595-151.291-55.113-197.558-14.015-31.603-31.448-51.71-43.956-63.219-9.526-5.687-17.991-8.827-24.576-10.546-3.64-.95-6.008 3.727-3.118 6.136 12.492 10.414 32.971 31.516 48.987 67.63 20.518 46.267 46.697 159.792 55.113 197.558 1.621 7.277 8.077 12.446 15.533 12.446h22.664c-7.457-.001-13.913-5.17-15.534-12.447z"/><path d="m387.085 153.159c-11.439 1.185-19.398 3.098-19.398 3.098 2.116-.361 3.079 2.528 1.174 3.517-32.728 16.991-81.169 69.458-107.681 201.005-.152.754-.501 1.344-.955 1.787l10.069-.784c6.024-.469 11.01-4.886 12.193-10.811 25.615-128.29 78.834-174.758 106.895-190.781 3.55-2.029 1.768-7.453-2.297-7.031z"/></g></g></svg>