<svg height="512" viewBox="0 0 44 60" width="512" xmlns="http://www.w3.org/2000/svg"><g id="007---Vegan-Certified" fill="none"><g id="Icons" transform="translate(1 1)"><path id="Shape" d="m9.51 38.19-5.45 15.9c-.13164343.4077741.011142.8541005.3550225 1.1097485.34388051.255648.81241928.2637929 1.1649775.0202515l3.32-2.35c.26174754-.1881111.59812048-.2385202.90351203-.135401.30539157.1031192.54235277.3471217.63648797.655401l1.17 3.9c.1299224.4183192.5169695.7033942.955.7033942s.8250776-.285075.955-.7033942l5.51-16z" fill="#a0522d"/><path id="Shape" d="m19 41.28-5.51 16c-.1299224.4183192-.5169695.7033942-.955.7033942s-.8250776-.285075-.955-.7033942l-.58-2.12 5.09-14.84z" fill="#783e22"/><path id="Shape" d="m32.49 38.19 5.45 15.9c.1316434.4077741-.011142.8541005-.3550225 1.1097485s-.8124193.2637929-1.1649775.0202515l-3.32-2.35c-.2617475-.1881111-.5981205-.2385202-.903512-.135401-.3053916.1031192-.5423528.3471217-.636488.655401l-1.17 3.9c-.1299224.4183192-.5169695.7033942-.955.7033942s-.8250776-.285075-.955-.7033942l-5.48-16.01z" fill="#a0522d"/><path id="Shape" d="m36.42 55.22c-1.73-1.22-1.34-.92-1.42-1.13l-5.15-15 2.67-.87 5.45 15.9c.128055.4129633-.0237924.8614545-.3763865 1.1116826-.3525942.2502281-.8260705.2455149-1.1736135-.0116826z" fill="#783e22"/><path id="Shape" d="m42 21c0 1.8-2 3.3-2.47 5s.53 4-.34 5.54-3.39 1.82-4.63 3-1.56 3.75-3.06 4.63-3.82-.12-5.54.34-3.16 2.49-4.96 2.49-3.31-2-5-2.47-4 .53-5.54-.34-1.82-3.39-3.06-4.63-3.75-1.53-4.63-3 .12-3.82-.34-5.54-2.43-3.23-2.43-5.02 2-3.3 2.47-5-.53-4 .34-5.54 3.4-1.81 4.63-3.05 1.56-3.72 3.06-4.6 3.82.12 5.54-.34 3.16-2.47 4.96-2.47 3.31 2 5 2.47 4-.53 5.54.34 1.82 3.39 3.06 4.63 3.75 1.53 4.63 3.05-.12 3.82.34 5.54 2.43 3.16 2.43 4.97z" fill="#a4c400"/><path id="Shape" d="m39.19 31.49c-.88 1.52-3.4 1.82-4.63 3s-1.56 3.8-3.06 4.68c-1 .57-2.33.34-3.62.24 2.12-.48 2.26-3.45 3.68-4.87 1.23-1.23 3.75-1.53 4.63-3s-.12-3.82.34-5.54 2.47-3.21 2.47-5-2-3.3-2.47-5 .53-4-.34-5.54-3.39-1.78-4.63-3.02c-1.39-1.39-1.56-4.44-3.68-4.87 1.29-.1 2.63-.33 3.62.24 1.53.88 1.82 3.39 3.06 4.63s3.75 1.53 4.63 3.05-.12 3.82.34 5.54 2.47 3.16 2.47 4.97-2 3.31-2.47 5 .53 4-.34 5.49z" fill="#90ac00"/><path id="Shape" d="m21 35c-7.7319865 0-14-6.2680135-14-14s6.2680135-14 14-14 14 6.2680135 14 14c0 3.7130309-1.4749958 7.2739856-4.1005051 9.8994949s-6.186464 4.1005051-9.8994949 4.1005051z" fill="#008a00"/><path id="Shape" d="m35 21c-.0026702 3.972495-1.6928322 7.7568255-4.6493559 10.4100671s-6.9010155 3.9255584-10.8506441 3.4999329c7.0925397-.7851395 12.4596186-6.7791354 12.4596186-13.915s-5.3670789-13.12986047-12.4596186-13.915c3.9513603-.42581116 7.8974912.84781308 10.8543626 3.5032744 2.9568714 2.6554613 4.6458046 6.4424882 4.6456374 10.4167256z" fill="#007900"/><path id="Shape" d="m16 27.85c-1.3230264-1.3586799-2.0465987-3.1907562-2.009016-5.0868041.0375827-1.8960478.8331876-3.6980116 2.209016-5.0031959 1.69-1.67 3.64-2.14 6-2.55 1.8238229-.3177158 3.5411738-1.0802196 5-2.22 2.2 5.49-.2 13.35-6.2 15.36-1.7463779.5695444-3.5940656.7604494-5.42.56 1.4825048-3.4544846 3.9085747-6.4212214 7-8.56z" fill="#a4c400"/></g><g id="Layer_2" fill="#000"><path id="Shape" d="m2.51 27.21c.41 1.53-.65 3.91.44 5.78s3.73 2.2 4.78 3.26c.66341509.9402255 1.22965215 1.94538 1.69 3l-5.3 15.47c-.24986143.8046502.03135368 1.6795957.70323859 2.1879887.6718849.5083929 1.59032712.541188 2.29676141.0820113l3.32-2.35 1.17 3.89c.2470407.8346382 1.0055339 1.4136582 1.8757731 1.4319309s1.652369-.5283981 1.9342269-1.3519309l5.18-14.91c.894629.3801265 1.905371.3801265 2.8 0l5.14 14.95c.2818579.8235328 1.0639877 1.3702036 1.9342269 1.3519309s1.6287324-.5972927 1.8757731-1.4319309l1.17-3.89 3.32 2.32c.7064343.4591767 1.6248765.4263816 2.2967614-.0820113.6718849-.508393.9531-1.3833385.7032386-2.1879887l-5.26-15.44c.4621021-1.0517589 1.0247145-2.0564238 1.68-3 1.09-1.12 3.74-1.42 4.79-3.29s.05-4.3.44-5.78 2.51-3.03 2.51-5.22-2.14-3.82-2.51-5.22.65-3.91-.44-5.78-3.73-2.2-4.78-3.26-1.38-3.74-3.27-4.8-4.3 0-5.78-.43-3.02-2.51-5.22-2.51-3.81 2.13-5.22 2.51c-1.56.41-3.9-.66-5.78.43s-2.19 3.72-3.26 4.79-3.74 1.38-4.74 3.27 0 4.3-.44 5.78-2.56 3.01-2.56 5.22 2.13 3.79 2.51 5.21zm11.06 30.79-1.17-3.91c-.1976033-.6096465-.6753934-1.0876735-1.2849419-1.2855789-.6095485-.1979053-1.27701924-.0917163-1.7950581.2855789l-3.32 2.32c5.36-15.61 4.9-14.41 5-14.41 1.84 1.07 4.3 0 5.78.43.7212439.3095798 1.3946823.7203773 2 1.22zm21.11-5c-.5317197-.3750147-1.2126328-.4679309-1.8253891-.2490894-.6127563.2188416-1.0807556.7220836-1.2546109 1.3490894l-1.17 3.9-5.26-15.31c.6003733-.5039265 1.2749967-.9120736 2-1.21 1.57-.42 3.9.65 5.78-.44.1-.06-.35-1.22 5 14.36zm-31.56-33.3c1.43-2 1.63-2.66 1.4-5.25s-.09-2.77 2.24-3.84 2.79-1.54 3.85-3.86 1.39-2.46 3.85-2.23 3.23 0 5.25-1.4 2.47-1.49 4.58 0 2.71 1.62 5.25 1.4 2.78-.09 3.85 2.23 1.55 2.79 3.85 3.86 2.47 1.34 2.24 3.84 0 3.24 1.4 5.25 1.49 2.47 0 4.58-1.63 2.66-1.4 5.25.09 2.77-2.24 3.85-2.78 1.53-3.85 3.85-1.34 2.46-3.85 2.24-3.23 0-5.25 1.39-2.47 1.49-4.58 0c-1.0423154-.9426353-2.3946995-1.4693533-3.8-1.48-1.44 0-3.07.41-3.91-.07-1.15-.67-1.46-3.09-2.85-4.47s-3.82-1.72-4.47-2.84.27-3.4-.24-5.29-2.44-3.38-2.44-4.71c.15146417-.856136.53941752-1.6528259 1.12-2.3z"/><path id="Shape" d="m22 37c8.2842712 0 15-6.7157288 15-15s-6.7157288-15-15-15-15 6.7157288-15 15 6.7157288 15 15 15zm0-28c7.1797017 0 13 5.8202983 13 13s-5.8202983 13-13 13-13-5.8202983-13-13c0-3.4478144 1.3696389-6.7544152 3.8076118-9.1923882 2.437973-2.4379729 5.7445738-3.8076118 9.1923882-3.8076118z"/><path id="Shape" d="m15.05 25.23c.5326668-.0266663.9506671-.4666665.95-1-.04701-1.7723836.6491214-3.4837067 1.92-4.72 1.51-1.5 3.29-1.9 5.48-2.27 1.5112798-.2598751 2.9558943-.8173263 4.25-1.64 1.3 5-1.07 11.2-6 12.84-1.1557039.3803653-2.3633585.5793921-3.58.59 1.4512518-2.7056317 3.503907-5.0422376 6-6.83.2152922-.1561269.3595264-.3915809.400811-.6543011.0412846-.2627203-.0237813-.5310643-.180811-.7456989-.3245963-.4421183-.9447379-.5402702-1.39-.22-3.2408451 2.2460799-5.7761199 5.3674853-7.31 9-.1029087.2892167-.0672774.6096747.0966476.8692226.1639249.2595479.4379782.4294236.7433524.4607774 5.23.56 9.93-1.56 12.26-6.6 1.5594824-3.3648605 1.7106785-7.2131594.42-10.69-.1144927-.2847517-.3534014-.5011592-.6480543-.5870183-.2946529-.0858592-.6124138-.0316601-.8619457.1470183-1.3294676 1.0397446-2.8903874 1.7430162-4.55 2.05-2.45.41-4.63.91-6.56 2.82-1.6608428 1.6355323-2.5634345 3.8901991-2.49 6.22.0103478.2671046.1272025.5189482.3244812.6993174.1972788.1803692.4585583.2742482.7255188.2606826z"/></g></g></svg>